PathFileType	4	(X/Y/Z)	Run_200 02
DataRate	CameraRate	NumFrames	NumMarkers	Units	OrigDataRate	OrigDataStartFrame	OrigNumFrames
100	100	7	42	mm	100	125	128
Frame#	Time	LPSI			RPSI			RTH1			RTH2			RTH3			LTH1			LTH2			LTH3			RTB1			RTB2			RTB3			LTB1			LTB2			LTB3			RCAL			RTOE			RMT5			LCAL			LTOE			LMT5			LACR			RACR			CLAV			C7			RUA1			RUA2			RUA3			RLEL			RMEL			LUA1			LUA2			LUA3			LLEL			LMEL			RFAsuperior			RFAradius			RFAulna			LFAsuperior			LFAradius			LFAulna			RASI			LASI			
		X1	Y1	Z1	X2	Y2	Z2	X3	Y3	Z3	X4	Y4	Z4	X5	Y5	Z5	X6	Y6	Z6	X7	Y7	Z7	X8	Y8	Z8	X9	Y9	Z9	X10	Y10	Z10	X11	Y11	Z11	X12	Y12	Z12	X13	Y13	Z13	X14	Y14	Z14	X15	Y15	Z15	X16	Y16	Z16	X17	Y17	Z17	X18	Y18	Z18	X19	Y19	Z19	X20	Y20	Z20	X21	Y21	Z21	X22	Y22	Z22	X23	Y23	Z23	X24	Y24	Z24	X25	Y25	Z25	X26	Y26	Z26	X27	Y27	Z27	X28	Y28	Z28	X29	Y29	Z29	X30	Y30	Z30	X31	Y31	Z31	X32	Y32	Z32	X33	Y33	Z33	X34	Y34	Z34	X35	Y35	Z35	X36	Y36	Z36	X37	Y37	Z37	X38	Y38	Z38	X39	Y39	Z39	X40	Y40	Z40	X41	Y41	Z41	X42	Y42	Z42	

108	1.88	635.999042	1138.600845	-514.8839390000001	639.582632	1135.912066	-430.09098	733.9985809999999	916.072859	-293.702521	761.437414	770.732272	-311.358494	661.620074	684.193297	-319.196465	759.272108	948.871444	-667.593131	849.76348	844.364636	-659.460498	798.98879	696.927177	-641.7048579999999	601.992653	436.411434	-365.719551	498.410816	397.419202	-318.350204	455.489919	301.26859	-373.372153	891.131315	478.383668	-589.533566	834.337091	399.191487	-653.362437	888.786144	272.311084	-587.765439	284.891931	308.13981	-408.027085	403.465422	108.294762	-378.105898	346.738234	120.008886	-299.766636	772.186647	126.378381	-559.047381	1000.584166	107.704131	-579.2040040000001	963.990665	62.297249	-649.485194	774.436086	1597.661767	-628.408201	774.859987	1566.578728	-300.686471	850.459268	1537.773776	-448.760544	720.128993	1612.776516	-478.609109	721.6424919999999	1453.721813	-218.890297	644.020005	1384.557251	-240.595829	686.193974	1341.329299	-191.8094	677.87856	1242.682637	-177.122796	633.835199	1228.822284	-248.160792	693.251761	1549.616386	-729.685736	607.174813	1502.577204	-725.548898	628.876953	1473.346371	-798.702328	592.246731	1400.819196	-848.015127	529.869221	1390.599274	-801.3407529999999	749.223657	1218.545532	-209.413215	903.823604	1278.254868	-335.092017	900.911395	1207.002403	-325.004026	656.141914	1301.755447	-805.890879	750.130672	1246.713209	-690.298667	705.228405	1200.157331	-710.675325	815.1491600000001	1048.876935	-349.401301	816.1621259999999	1069.709003	-603.179307	
109	1.89	635.252712	1133.47711	-516.01724	639.3785789999999	1131.117296	-431.593175	737.312619	911.440125	-294.702065	767.281311	766.677281	-313.281816	669.5099	678.2119290000001	-320.438448	758.915573	944.343696	-669.326026	850.117811	840.055546	-662.515986	798.510599	692.51752	-643.942799	606.36483	433.036727	-367.444439	501.096885	398.983883	-319.436407	453.622246	305.135777	-375.272194	889.019047	473.623245	-591.375552	831.668828	394.318916	-654.280503	886.177746	267.470665	-588.610033	282.207903	318.670356	-408.061831	395.654646	116.030856	-380.607723	341.206905	128.956353	-301.279919	768.181292	124.501059	-558.633367	996.007671	100.337756	-577.0305499999999	958.724306	55.048238	-647.119552	774.863616	1592.032921	-631.67738	773.84612	1563.073622	-303.018679	850.1147130000001	1533.68446	-450.754865	719.793977	1608.544869	-481.640557	719.188798	1451.179395	-221.086198	641.222164	1382.683226	-243.160117	682.407797	1339.097294	-193.777134	672.971307	1240.510872	-178.745689	629.234554	1227.11155	-249.625382	694.8496699999999	1542.282547	-733.605919	609.126849	1494.504519	-730.082818	632.077371	1464.428266	-802.556333	596.795607	1391.184361	-851.640069	534.1822079999999	1380.259626	-805.262845	744.119401	1214.679636	-210.382066	900.704402	1269.322845	-335.448856	895.86686	1198.545084	-324.298623	661.960063	1293.674474	-807.907735	755.726327	1241.523627	-690.78428	711.935604	1193.917886	-711.218671	815.609971	1045.91066	-351.59893	817.009444	1066.282356	-606.1785640000001	
110	1.9	634.487577	1127.044953	-517.242076	638.5343779999999	1125.101113	-432.903881	740.223259	906.014738	-295.632005	773.266741	761.840371	-314.525954	677.903058	671.423849	-321.303084	759.231478	939.166986	-670.712178	850.962237	835.624187	-664.386916	797.904044	687.2262030000001	-645.824523	611.722389	429.06883	-368.807316	505.08022	399.79697	-320.337658	453.324586	308.551058	-377.030108	886.271397	467.372455	-593.294904	827.670489	388.378358	-655.369589	880.842878	261.229369	-589.172644	281.322182	328.488392	-408.288087	390.214792	123.423235	-383.243269	337.768382	137.136991	-303.27429	759.714416	123.001145	-557.541255	987.062709	91.244848	-575.057369	948.047629	48.813413	-646.164562	775.491868	1585.252463	-635.064717	772.542062	1558.468568	-305.156661	849.592439	1528.491348	-452.568917	719.314623	1603.438133	-484.60114	716.526436	1447.424832	-223.392201	638.113352	1379.659313	-245.771825	678.301549	1335.809041	-195.728241	667.656393	1237.183616	-180.56917	624.271227	1224.250139	-251.406955	696.955515	1533.468469	-737.6729790000001	611.557513	1484.842367	-734.926922	636.1125510000001	1453.935464	-806.625733	602.4284290000001	1379.981737	-855.5684649999999	539.404569	1368.450608	-809.678624	738.371424	1209.100454	-211.493666	897.449463	1258.692719	-335.283598	890.393465	1188.23408	-324.022552	668.713464	1284.119627	-809.908765	761.878138	1235.087868	-690.990801	719.364152	1186.395411	-711.550356	815.904601	1041.944383	-353.417336	817.715264	1061.797991	-608.493709	
111	1.91	633.849485	1119.65102	-518.647469	637.262906	1117.967992	-434.046553	742.824215	899.974576	-296.834451	779.294797	756.301013	-315.01244	686.647453	663.952851	-321.714849	760.134201	933.155376	-671.5867030000001	851.545315	830.5716619999999	-664.335407	797.274306	681.141073	-647.209073	618.1064689999999	424.55447	-369.378875	510.367217	399.715749	-321.202929	454.60035	311.489633	-378.519353	882.812707	459.631878	-594.531446	822.214467	381.549415	-656.065235	871.473757	253.772923	-588.473911	282.27935	337.408145	-408.898341	387.298215	129.92376	-385.552443	336.106427	144.463177	-305.443438	745.310609	120.254273	-555.444519	972.821782	82.862109	-573.554714	931.869841	45.334884	-646.708161	776.208341	1577.347378	-638.377358	770.808053	1552.829131	-307.168271	848.896883	1522.387404	-454.157592	718.703087	1597.483273	-487.494914	713.662178	1442.526124	-225.762501	634.683307	1375.554561	-248.491505	673.861357	1331.52265	-197.707949	661.98549	1232.879407	-182.356634	618.7506100000001	1220.282474	-253.369299	699.536071	1523.287327	-741.809932	614.509768	1473.713874	-740.063809	640.968163	1441.966309	-810.839382	609.1298	1367.325824	-859.666547	545.571263	1355.136196	-814.527005	732.075958	1202.254459	-212.550019	894.109311	1246.536312	-334.606265	884.394674	1176.257146	-323.881038	676.379277	1273.220136	-811.747549	768.573805	1227.580459	-690.844283	727.506758	1177.761397	-711.594037	816.029762	1036.983925	-354.950721	818.232048	1056.248649	-610.1612720000001	
112	1.92	633.124467	1111.376065	-520.360192	636.074513	1109.611194	-435.503941	745.312196	893.371051	-298.284309	785.304054	750.280026	-314.740577	695.632331	655.901972	-321.745045	761.4129380000001	926.217945	-672.184266	851.581657	824.480367	-662.160757	797.033296	674.475869	-648.418995	625.546667	419.707641	-369.157298	516.84692	398.978016	-322.007433	457.524444	313.910701	-379.724952	878.4064100000001	450.824173	-594.562465	815.138026	374.238115	-655.800557	857.6942790000001	245.663099	-586.07629	285.135458	345.306141	-409.949936	386.862826	135.422403	-387.274213	336.097555	150.968165	-307.467036	725.137331	114.986278	-552.725024	953.74048	77.380392	-572.352253	911.797276	44.585058	-647.7543020000001	776.922522	1568.451962	-641.5326659999999	768.490693	1546.258384	-309.101388	848.175242	1515.517148	-455.445662	717.964667	1590.735704	-490.360734	710.494315	1436.497675	-228.169024	630.836867	1370.398994	-251.344282	669.059351	1326.187309	-199.840799	656.00344	1227.828079	-183.993889	612.822587	1215.425769	-255.361727	702.509271	1511.81621	-745.930696	618.050896	1461.203801	-745.4231109999999	646.618886	1428.6257	-815.151568	616.88614	1353.398156	-863.816021	552.746544	1340.241347	-819.710339	725.366131	1194.604501	-213.351874	890.5544159999999	1232.858563	-333.518089	877.772462	1162.849014	-323.287399	684.944429	1261.123835	-813.318778	775.807632	1219.219443	-690.211661	736.317357	1168.230699	-711.259855	815.999097	1031.116504	-356.368218	818.6105690000001	1049.809841	-611.6424459999999	
113	1.93	631.92308	1102.190997	-522.450887	634.967605	1100.01771	-437.654441	747.885852	886.1812660000001	-299.591117	791.26159	744.1355129999999	-313.858248	704.772103	647.458599	-321.519301	762.675131	918.688598	-673.02046	851.201248	817.325015	-658.844961	797.054919	667.483224	-649.697672	634.033326	414.842103	-368.539165	524.372197	398.026312	-322.579733	462.219053	315.75981	-380.703765	872.752303	441.714106	-593.328583	806.785991	367.003021	-654.651593	840.992711	237.716702	-582.565524	289.99888	352.081555	-411.406781	388.738875	140.223257	-388.510891	337.817528	156.728486	-309.158888	701.79088	107.927072	-550.1906739999999	932.1679799999999	75.00124099999999	-571.315101	890.381631	45.04379	-648.334573	777.593157	1558.836078	-644.6240320000001	765.519852	1539.056637	-310.921382	847.666011	1507.89921	-456.348387	717.042792	1583.253756	-493.258824	706.816378	1429.494265	-230.615181	626.460889	1364.201758	-254.284136	663.900333	1319.859205	-202.153227	649.743954	1222.217586	-185.599775	606.953184	1209.991169	-257.389158	705.834777	1499.066994	-750.04303	622.177059	1447.266771	-750.876032	653.056474	1414.049924	-819.5304190000001	625.7007620000001	1338.439885	-867.9405	561.001864	1323.867468	-825.0892	718.35092	1186.379721	-213.832817	886.536876	1217.634833	-332.084486	870.554965	1148.19065	-321.861897	694.414012	1248.038208	-814.6230859999999	783.586378	1210.211825	-689.006295	745.734953	1158.028941	-710.489925	815.776647	1024.502473	-357.816786	818.827861	1042.681844	-613.286682	
114	1.94	630.193818	1092.57482	-524.798752	633.468166	1089.726785	-440.299939	750.5622530000001	878.612928	-300.418994	797.12059	738.277432	-312.624087	713.990694	638.993252	-321.115939	763.459299	911.284884	-674.3937539999999	850.440876	809.4740430000001	-656.261263	796.406726	660.4213140000001	-650.855543	643.569375	410.226825	-367.985485	532.920468	397.10927	-322.817679	468.74634	317.019716	-381.53456	865.883722	433.053115	-591.255501	798.002908	360.307492	-653.311349	823.8130640000001	230.599803	-578.984634	296.860684	357.608826	-413.160256	392.849932	144.60325	-389.567621	341.553695	161.755319	-310.477358	678.597844	101.263915	-548.288223	910.856215	74.16676699999999	-570.510687	869.52453	45.305705	-648.289902	778.236273	1548.880791	-647.8351290000001	762.016877	1531.752742	-312.601964	847.491159	1499.60413	-456.82517	715.8630460000001	1575.152515	-496.265651	702.435216	1422.046573	-233.151466	621.590647	1357.182727	-257.261589	658.446989	1312.919743	-204.586602	643.238028	1216.257306	-187.383457	601.449289	1204.280821	-259.554337	709.578875	1485.153849	-754.2553830000001	626.78668	1431.88462	-756.336938	660.323542	1398.491702	-823.891584	635.60549	1322.733574	-871.943579	570.3901519999999	1306.398146	-830.446585	711.029586	1177.683049	-214.071428	881.882458	1201.05164	-330.226329	862.8531840000001	1132.467342	-319.638551	704.815548	1234.267919	-815.693372	791.938758	1200.721781	-687.286882	755.747664	1147.355557	-709.2779389999999	815.226196	1017.361616	-359.289581	818.7256630000001	1035.050552	-615.050441	
